<svg width="1440" height="30" viewBox="0 0 1440 30" fill="none" xmlns="http://www.w3.org/2000/svg">
<g clip-path="url(#clip0)">
<rect width="54" height="30" transform="matrix(1 0 0 -1 1 30)" fill="white"/>
<path d="M11.3091 20.8864V16.2579H16.7091V25H1V6.5H22.5V10.5998H6.4V20.8864H11.3091Z" fill="#A3195B"/>
<path d="M19 12.004V30H55V25.8873H46.5V21.7746H37.5V17.1472H28.5V12.004H19Z" fill="#A3195B"/>
<path d="M28 0V6.42776H37.1915V11.5647H46.383V18H55V0H28Z" fill="#A3195B"/>
<rect width="54" height="30" transform="matrix(1 0 0 -1 64 30)" fill="white"/>
<path d="M74.3091 20.8864V16.2579H79.7091V25H64V6.5H85.5V10.5998H69.4V20.8864H74.3091Z" fill="#A3195B"/>
<path d="M82 12.004V30H118V25.8873H109.5V21.7746H100.5V17.1472H91.5V12.004H82Z" fill="#A3195B"/>
<path d="M91 0V6.42776H100.191V11.5647H109.383V18H118V0H91Z" fill="#A3195B"/>
<rect width="54" height="30" transform="matrix(1 0 0 -1 127 30)" fill="white"/>
<path d="M137.309 20.8864V16.2579H142.709V25H127V6.5H148.5V10.5998H132.4V20.8864H137.309Z" fill="#A3195B"/>
<path d="M145 12.004V30H181V25.8873H172.5V21.7746H163.5V17.1472H154.5V12.004H145Z" fill="#A3195B"/>
<path d="M154 0V6.42776H163.191V11.5647H172.383V18H181V0H154Z" fill="#A3195B"/>
<rect width="54" height="30" transform="matrix(1 0 0 -1 190 30)" fill="white"/>
<path d="M200.309 20.8864V16.2579H205.709V25H190V6.5H211.5V10.5998H195.4V20.8864H200.309Z" fill="#A3195B"/>
<path d="M208 12.004V30H244V25.8873H235.5V21.7746H226.5V17.1472H217.5V12.004H208Z" fill="#A3195B"/>
<path d="M217 0V6.42776H226.191V11.5647H235.383V18H244V0H217Z" fill="#A3195B"/>
<rect width="54" height="30" transform="matrix(1 0 0 -1 253 30)" fill="white"/>
<path d="M263.309 20.8864V16.2579H268.709V25H253V6.5H274.5V10.5998H258.4V20.8864H263.309Z" fill="#A3195B"/>
<path d="M271 12.004V30H307V25.8873H298.5V21.7746H289.5V17.1472H280.5V12.004H271Z" fill="#A3195B"/>
<path d="M280 0V6.42776H289.191V11.5647H298.383V18H307V0H280Z" fill="#A3195B"/>
<rect width="54" height="30" transform="matrix(1 0 0 -1 316 30)" fill="white"/>
<path d="M326.309 20.8864V16.2579H331.709V25H316V6.5H337.5V10.5998H321.4V20.8864H326.309Z" fill="#A3195B"/>
<path d="M334 12.004V30H370V25.8873H361.5V21.7746H352.5V17.1472H343.5V12.004H334Z" fill="#A3195B"/>
<path d="M343 0V6.42776H352.191V11.5647H361.383V18H370V0H343Z" fill="#A3195B"/>
<rect width="54" height="30" transform="matrix(1 0 0 -1 379 30)" fill="white"/>
<path d="M389.309 20.8864V16.2579H394.709V25H379V6.5H400.5V10.5998H384.4V20.8864H389.309Z" fill="#A3195B"/>
<path d="M397 12.004V30H433V25.8873H424.5V21.7746H415.5V17.1472H406.5V12.004H397Z" fill="#A3195B"/>
<path d="M406 0V6.42776H415.191V11.5647H424.383V18H433V0H406Z" fill="#A3195B"/>
<rect width="54" height="30" transform="matrix(1 0 0 -1 442 30)" fill="white"/>
<path d="M452.309 20.8864V16.2579H457.709V25H442V6.5H463.5V10.5998H447.4V20.8864H452.309Z" fill="#A3195B"/>
<path d="M460 12.004V30H496V25.8873H487.5V21.7746H478.5V17.1472H469.5V12.004H460Z" fill="#A3195B"/>
<path d="M469 0V6.42776H478.191V11.5647H487.383V18H496V0H469Z" fill="#A3195B"/>
<rect width="54" height="30" transform="matrix(1 0 0 -1 505 30)" fill="white"/>
<path d="M515.309 20.8864V16.2579H520.709V25H505V6.5H526.5V10.5998H510.4V20.8864H515.309Z" fill="#A3195B"/>
<path d="M523 12.004V30H559V25.8873H550.5V21.7746H541.5V17.1472H532.5V12.004H523Z" fill="#A3195B"/>
<path d="M532 0V6.42776H541.191V11.5647H550.383V18H559V0H532Z" fill="#A3195B"/>
<rect width="54" height="30" transform="matrix(1 0 0 -1 568 30)" fill="white"/>
<path d="M578.309 20.8864V16.2579H583.709V25H568V6.5H589.5V10.5998H573.4V20.8864H578.309Z" fill="#A3195B"/>
<path d="M586 12.004V30H622V25.8873H613.5V21.7746H604.5V17.1472H595.5V12.004H586Z" fill="#A3195B"/>
<path d="M595 0V6.42776H604.191V11.5647H613.383V18H622V0H595Z" fill="#A3195B"/>
<rect width="54" height="30" transform="matrix(1 0 0 -1 631 30)" fill="white"/>
<path d="M641.309 20.8864V16.2579H646.709V25H631V6.5H652.5V10.5998H636.4V20.8864H641.309Z" fill="#A3195B"/>
<path d="M649 12.004V30H685V25.8873H676.5V21.7746H667.5V17.1472H658.5V12.004H649Z" fill="#A3195B"/>
<path d="M658 0V6.42776H667.191V11.5647H676.383V18H685V0H658Z" fill="#A3195B"/>
<rect width="54" height="30" transform="matrix(1 0 0 -1 694 30)" fill="white"/>
<path d="M704.309 20.8864V16.2579H709.709V25H694V6.5H715.5V10.5998H699.4V20.8864H704.309Z" fill="#A3195B"/>
<path d="M712 12.004V30H748V25.8873H739.5V21.7746H730.5V17.1472H721.5V12.004H712Z" fill="#A3195B"/>
<path d="M721 0V6.42776H730.191V11.5647H739.383V18H748V0H721Z" fill="#A3195B"/>
<rect width="54" height="30" transform="matrix(1 0 0 -1 757 30)" fill="white"/>
<path d="M767.309 20.8864V16.2579H772.709V25H757V6.5H778.5V10.5998H762.4V20.8864H767.309Z" fill="#A3195B"/>
<path d="M775 12.004V30H811V25.8873H802.5V21.7746H793.5V17.1472H784.5V12.004H775Z" fill="#A3195B"/>
<path d="M784 0V6.42776H793.191V11.5647H802.383V18H811V0H784Z" fill="#A3195B"/>
<rect width="54" height="30" transform="matrix(1 0 0 -1 820 30)" fill="white"/>
<path d="M830.309 20.8864V16.2579H835.709V25H820V6.5H841.5V10.5998H825.4V20.8864H830.309Z" fill="#A3195B"/>
<path d="M838 12.004V30H874V25.8873H865.5V21.7746H856.5V17.1472H847.5V12.004H838Z" fill="#A3195B"/>
<path d="M847 0V6.42776H856.191V11.5647H865.383V18H874V0H847Z" fill="#A3195B"/>
<rect width="54" height="30" transform="matrix(1 0 0 -1 883 30)" fill="white"/>
<path d="M893.309 20.8864V16.2579H898.709V25H883V6.5H904.5V10.5998H888.4V20.8864H893.309Z" fill="#A3195B"/>
<path d="M901 12.004V30H937V25.8873H928.5V21.7746H919.5V17.1472H910.5V12.004H901Z" fill="#A3195B"/>
<path d="M910 0V6.42776H919.191V11.5647H928.383V18H937V0H910Z" fill="#A3195B"/>
<rect width="54" height="30" transform="matrix(1 0 0 -1 946 30)" fill="white"/>
<path d="M956.309 20.8864V16.2579H961.709V25H946V6.5H967.5V10.5998H951.4V20.8864H956.309Z" fill="#A3195B"/>
<path d="M964 12.004V30H1000V25.8873H991.5V21.7746H982.5V17.1472H973.5V12.004H964Z" fill="#A3195B"/>
<path d="M973 0V6.42776H982.191V11.5647H991.383V18H1000V0H973Z" fill="#A3195B"/>
<rect width="54" height="30" transform="matrix(1 0 0 -1 1009 30)" fill="white"/>
<path d="M1019.31 20.8864V16.2579H1024.71V25H1009V6.5H1030.5V10.5998H1014.4V20.8864H1019.31Z" fill="#A3195B"/>
<path d="M1027 12.004V30H1063V25.8873H1054.5V21.7746H1045.5V17.1472H1036.5V12.004H1027Z" fill="#A3195B"/>
<path d="M1036 0V6.42776H1045.19V11.5647H1054.38V18H1063V0H1036Z" fill="#A3195B"/>
<rect width="54" height="30" transform="matrix(1 0 0 -1 1072 30)" fill="white"/>
<path d="M1082.31 20.8864V16.2579H1087.71V25H1072V6.5H1093.5V10.5998H1077.4V20.8864H1082.31Z" fill="#A3195B"/>
<path d="M1090 12.004V30H1126V25.8873H1117.5V21.7746H1108.5V17.1472H1099.5V12.004H1090Z" fill="#A3195B"/>
<path d="M1099 0V6.42776H1108.19V11.5647H1117.38V18H1126V0H1099Z" fill="#A3195B"/>
<rect width="54" height="30" transform="matrix(1 0 0 -1 1135 30)" fill="white"/>
<path d="M1145.31 20.8864V16.2579H1150.71V25H1135V6.5H1156.5V10.5998H1140.4V20.8864H1145.31Z" fill="#A3195B"/>
<path d="M1153 12.004V30H1189V25.8873H1180.5V21.7746H1171.5V17.1472H1162.5V12.004H1153Z" fill="#A3195B"/>
<path d="M1162 0V6.42776H1171.19V11.5647H1180.38V18H1189V0H1162Z" fill="#A3195B"/>
<rect width="54" height="30" transform="matrix(1 0 0 -1 1198 30)" fill="white"/>
<path d="M1208.31 20.8864V16.2579H1213.71V25H1198V6.5H1219.5V10.5998H1203.4V20.8864H1208.31Z" fill="#A3195B"/>
<path d="M1216 12.004V30H1252V25.8873H1243.5V21.7746H1234.5V17.1472H1225.5V12.004H1216Z" fill="#A3195B"/>
<path d="M1225 0V6.42776H1234.19V11.5647H1243.38V18H1252V0H1225Z" fill="#A3195B"/>
<rect width="54" height="30" transform="matrix(1 0 0 -1 1261 30)" fill="white"/>
<path d="M1271.31 20.8864V16.2579H1276.71V25H1261V6.5H1282.5V10.5998H1266.4V20.8864H1271.31Z" fill="#A3195B"/>
<path d="M1279 12.004V30H1315V25.8873H1306.5V21.7746H1297.5V17.1472H1288.5V12.004H1279Z" fill="#A3195B"/>
<path d="M1288 0V6.42776H1297.19V11.5647H1306.38V18H1315V0H1288Z" fill="#A3195B"/>
<rect width="54" height="30" transform="matrix(1 0 0 -1 1324 30)" fill="white"/>
<path d="M1334.31 20.8864V16.2579H1339.71V25H1324V6.5H1345.5V10.5998H1329.4V20.8864H1334.31Z" fill="#A3195B"/>
<path d="M1342 12.004V30H1378V25.8873H1369.5V21.7746H1360.5V17.1472H1351.5V12.004H1342Z" fill="#A3195B"/>
<path d="M1351 0V6.42776H1360.19V11.5647H1369.38V18H1378V0H1351Z" fill="#A3195B"/>
<rect width="54" height="30" transform="matrix(1 0 0 -1 1387 30)" fill="white"/>
<path d="M1397.31 20.8864V16.2579H1402.71V25H1387V6.5H1408.5V10.5998H1392.4V20.8864H1397.31Z" fill="#A3195B"/>
<path d="M1405 12.004V30H1441V25.8873H1432.5V21.7746H1423.5V17.1472H1414.5V12.004H1405Z" fill="#A3195B"/>
<path d="M1414 0V6.42776H1423.19V11.5647H1432.38V18H1441V0H1414Z" fill="#A3195B"/>
</g>
<defs>
<clipPath id="clip0">
<rect width="1440" height="30" fill="white"/>
</clipPath>
</defs>
</svg>
