<svg width="54" height="54" viewBox="0 0 54 54" fill="none" xmlns="http://www.w3.org/2000/svg">
<path d="M4.47186 15.3877C6.10663 11.981 8.41639 9.10174 11.3273 6.7076C15.2719 3.44861 19.7965 1.48689 24.8695 0.885722C30.8285 0.179081 36.4289 1.3076 41.6074 4.40838C42.8941 5.1783 44.0965 6.05369 45.2461 7.00291C45.5308 7.23494 45.4992 7.37205 45.2566 7.60408C42.9047 9.94549 40.5527 12.2869 38.2219 14.6494C37.9476 14.9236 37.8 14.9025 37.5047 14.681C30.6703 9.41815 20.7035 10.842 15.6094 17.8029C14.7129 19.0264 13.9851 20.3447 13.4789 21.7791C13.4367 21.9056 13.3523 22.0217 13.2891 22.1482C11.9285 21.1146 10.5574 20.081 9.20741 19.0369C7.62538 17.824 6.04335 16.6111 4.47186 15.3877Z" fill="#E94335"/>
<path d="M13.289 32.041C13.7426 33.043 14.1222 34.0871 14.6918 35.0258C17.0859 38.9492 20.5031 41.4699 25.0066 42.3664C29.0672 43.1785 32.9695 42.6301 36.6082 40.5945C36.7347 40.5313 36.8613 40.468 36.9773 40.4047C37.0406 40.468 37.0933 40.5418 37.1566 40.5945C39.8777 42.7039 42.6094 44.8133 45.3304 46.9227C44.0226 48.2199 42.5355 49.2641 40.9535 50.1711C36.3656 52.7867 31.398 53.8414 26.1668 53.4406C19.6488 52.9344 14.0273 50.3609 9.38669 45.7203C7.35115 43.6848 5.67419 41.3855 4.4613 38.7594C5.58982 37.8945 6.71834 37.0402 7.84685 36.1754C9.66091 34.7938 11.475 33.4227 13.289 32.041Z" fill="#34A853"/>
<path d="M45.341 46.923C42.6199 44.8137 39.8883 42.7043 37.1672 40.5949C37.1039 40.5422 37.0406 40.4684 36.9879 40.4051C37.9266 39.6773 38.8863 38.9707 39.6563 38.0426C40.943 36.5027 41.7973 34.7625 42.2403 32.8113C42.293 32.5687 42.2508 32.4844 42.0082 32.4949C41.8817 32.5055 41.7656 32.4949 41.6391 32.4949C37.336 32.4949 33.0223 32.4844 28.7192 32.5055C28.2445 32.5055 28.1391 32.3789 28.1496 31.9254C28.1707 28.8668 28.1707 25.8082 28.1496 22.7496C28.1496 22.3594 28.2551 22.2539 28.6453 22.2539C36.5344 22.2645 44.4235 22.2645 52.3231 22.2539C52.6606 22.2539 52.7977 22.3383 52.8821 22.6969C53.5254 25.5973 53.4832 28.5082 53.093 31.4402C52.7766 33.7816 52.2071 36.0492 51.3317 38.243C50.0344 41.4809 48.1254 44.3074 45.6153 46.7332C45.5203 46.807 45.4254 46.8598 45.341 46.923Z" fill="#4285F3"/>
<path d="M13.289 32.0414C11.475 33.423 9.66092 34.7941 7.84685 36.1758C6.71834 37.0301 5.58982 37.8949 4.46131 38.7598C3.58592 37.1355 3.01639 35.4164 2.55232 33.6445C1.66639 30.2168 1.52928 26.7363 2.01443 23.2453C2.39412 20.5031 3.18514 17.8664 4.46131 15.3984C6.04334 16.6113 7.61482 17.8348 9.19685 19.0477C10.5574 20.0918 11.9179 21.1254 13.2785 22.159C13.0465 23.2875 12.7195 24.3949 12.614 25.5551C12.4242 27.6645 12.6246 29.7211 13.2258 31.7461C13.2679 31.8305 13.2785 31.9359 13.289 32.0414Z" fill="#FABB06"/>
</svg>
