<svg width="270" height="360" viewBox="0 0 270 360" fill="none" xmlns="http://www.w3.org/2000/svg">
<path d="M135 216.715C183.704 216.715 223.186 178.374 223.186 131.079C223.186 83.7834 183.704 45.4429 135 45.4429C86.2957 45.4429 46.8132 83.7834 46.8132 131.079C46.8132 178.374 86.2957 216.715 135 216.715Z" fill="white"/>
<path d="M134.997 211.031C180.468 211.031 217.331 175.235 217.331 131.079C217.331 86.9222 180.468 51.1262 134.997 51.1262C89.525 51.1262 52.6628 86.9222 52.6628 131.079C52.6628 175.235 89.525 211.031 134.997 211.031Z" stroke="#A3195B" stroke-width="2.077" stroke-miterlimit="10"/>
<path d="M134.992 0.00326538C108.296 0.00326546 82.1986 7.69065 60.001 22.0933C37.8035 36.496 20.5024 56.9671 10.2855 80.9181C0.0686903 104.869 -2.60502 131.224 2.60249 156.651C7.80999 182.077 20.6648 205.433 39.5415 223.765C58.4181 242.097 82.4688 254.582 108.652 259.641C134.836 264.7 161.976 262.105 186.641 252.186C211.306 242.266 232.388 225.467 247.222 203.913C262.055 182.358 269.973 157.017 269.975 131.092C269.977 113.878 266.486 96.8317 259.703 80.9273C252.92 65.0229 242.978 50.5717 230.443 38.3989C217.909 26.226 203.028 16.57 186.65 9.982C170.273 3.39405 152.719 0.00326533 134.992 0.00326538V0.00326538ZM134.992 217.051C117.484 217.05 100.369 212.007 85.8117 202.56C71.2545 193.113 59.909 179.687 53.2097 163.979C46.5104 148.27 44.7583 130.986 48.1748 114.31C51.5914 97.6349 60.0233 82.3179 72.4042 70.296C84.7851 58.2741 100.559 50.0873 117.731 46.7708C134.903 43.4544 152.703 45.1572 168.878 51.6639C185.054 58.1707 198.88 69.1891 208.607 83.326C218.334 97.4629 223.526 114.083 223.526 131.085C223.526 142.376 221.237 153.556 216.788 163.987C212.339 174.418 205.818 183.896 197.597 191.879C189.376 199.863 179.615 206.195 168.874 210.515C158.132 214.836 146.619 217.059 134.992 217.058V217.051Z" fill="#A3195B"/>
<path d="M134.66 21.9531L131.451 32.1464L128.241 42.3396H141.076L137.87 32.1464L134.66 21.9531Z" fill="#00A19A"/>
<path d="M148.977 35.5297C147.848 35.5301 146.751 35.8908 145.854 36.5563L134.66 0L123.46 36.5563C122.56 35.8932 121.462 35.5328 120.332 35.5297C118.898 35.5297 117.522 36.0831 116.507 37.0683C115.493 38.0535 114.923 39.3897 114.923 40.783C114.923 42.1762 115.493 43.5124 116.507 44.4976C117.522 45.4828 118.898 46.0362 120.332 46.0362C121.411 46.0309 122.461 45.705 123.343 45.1026C124.225 44.5001 124.896 43.6499 125.265 42.6663H125.306L134.663 12.9399L144.007 42.6663H144.031C144.397 43.5298 144.997 44.2807 145.768 44.8389C146.539 45.3972 147.451 45.7419 148.408 45.8364C149.364 45.9308 150.329 45.7714 151.2 45.3752C152.071 44.9789 152.814 44.3607 153.352 43.5863C153.889 42.812 154.2 41.9106 154.251 40.9782C154.302 40.0458 154.092 39.1173 153.643 38.2918C153.194 37.4663 152.522 36.7746 151.7 36.2905C150.878 35.8065 149.935 35.5481 148.974 35.543L148.977 35.5297Z" fill="#00A19A"/>
<path d="M55.2918 54.1562L60.4406 63.5661L65.5895 72.976L74.6653 64.1628L64.9751 59.1628L55.2849 54.1629L55.2918 54.1562Z" fill="#00A19A"/>
<path d="M75.2973 53.9228C74.5022 54.7001 73.9889 55.7074 73.835 56.7927L39.3032 38.6129L58.0039 72.1526C56.8802 72.3062 55.8389 72.8118 55.0382 73.5926C54.3227 74.2584 53.8094 75.1023 53.5542 76.0322C53.2989 76.962 53.3116 77.9421 53.5908 78.8654C53.87 79.7887 54.4051 80.6198 55.1375 81.268C55.87 81.9162 56.7717 82.3566 57.7443 82.5411C58.7169 82.7256 59.723 82.6471 60.6528 82.3142C61.5825 81.9813 62.4003 81.4068 63.0168 80.6534C63.6333 79.9 64.0249 78.9966 64.1487 78.0418C64.2726 77.087 64.124 76.1176 63.7192 75.2392L63.7398 75.2159L48.7119 47.7695L76.9758 62.3694V62.3494C77.9555 62.7931 79.0515 62.9351 80.1167 62.7564C81.1819 62.5776 82.1653 62.0866 82.9348 61.3494C83.4592 60.8666 83.8788 60.2868 84.1687 59.644C84.4586 59.0012 84.613 58.3086 84.6227 57.6069C84.6323 56.9053 84.4972 56.2088 84.2251 55.5587C83.953 54.9086 83.5496 54.3181 83.0387 53.8219C82.5277 53.3257 81.9195 52.9339 81.2501 52.6698C80.5806 52.4056 79.8634 52.2743 79.1409 52.2837C78.4183 52.2931 77.705 52.443 77.0431 52.7245C76.3812 53.006 75.7841 53.4135 75.287 53.9228H75.2973Z" fill="#00A19A"/>
<path d="M22.6067 131.422L33.1035 134.535L43.6004 137.652V125.189L33.1035 128.305L22.6067 131.422Z" fill="#00A19A"/>
<path d="M36.5845 117.512C36.5847 118.609 36.9535 119.675 37.6348 120.549L0 131.419L37.652 142.295C36.9649 143.17 36.5923 144.239 36.5913 145.339C36.5913 146.732 37.1613 148.068 38.1758 149.053C39.1903 150.039 40.5663 150.592 42.0011 150.592C43.4358 150.592 44.8118 150.039 45.8263 149.053C46.8409 148.068 47.4108 146.732 47.4108 145.339C47.4073 144.288 47.0724 143.264 46.4513 142.404C45.8303 141.544 44.9528 140.89 43.937 140.529V140.495L13.3116 131.419L43.937 122.336V122.306C44.9531 121.949 45.832 121.298 46.455 120.441C47.078 119.584 47.4152 118.561 47.4211 117.512C47.4211 116.822 47.2812 116.139 47.0093 115.502C46.7375 114.865 46.339 114.285 45.8366 113.798C45.3343 113.31 44.7379 112.923 44.0816 112.659C43.4252 112.395 42.7218 112.259 42.0114 112.259C41.3009 112.259 40.5975 112.395 39.9411 112.659C39.2848 112.923 38.6884 113.31 38.1861 113.798C37.6838 114.285 37.2853 114.865 37.0134 115.502C36.7415 116.139 36.6016 116.822 36.6016 117.512H36.5845Z" fill="#00A19A"/>
<path d="M55.769 208.485L65.4489 203.485L75.1391 198.485L66.0634 189.671L60.9145 199.088L55.769 208.485Z" fill="#00A19A"/>
<path d="M55.529 189.055C56.3262 189.832 57.3647 190.334 58.4844 190.482L39.7803 224.025L74.3189 205.858C74.4724 206.95 74.9881 207.963 75.7881 208.745C76.8079 209.708 78.1772 210.243 79.5998 210.233C81.0224 210.223 82.384 209.67 83.39 208.693C84.3959 207.717 84.9654 206.394 84.9753 205.013C84.9852 203.631 84.4346 202.302 83.4427 201.311C82.6724 200.575 81.6891 200.085 80.6243 199.907C79.5594 199.728 78.4637 199.869 77.4837 200.311L77.4597 200.281L49.1958 214.881L64.2306 187.435C64.687 186.485 64.8329 185.421 64.6488 184.388C64.4647 183.355 63.9594 182.401 63.2008 181.655C62.6986 181.167 62.1024 180.78 61.4461 180.515C60.7898 180.251 60.0864 180.115 59.3759 180.115C58.6654 180.114 57.9618 180.25 57.3053 180.514C56.6488 180.777 56.0522 181.164 55.5496 181.652C55.0469 182.139 54.6482 182.718 54.376 183.356C54.1038 183.993 53.9635 184.676 53.9632 185.366C53.9629 186.056 54.1025 186.739 54.3741 187.377C54.6457 188.014 55.044 188.593 55.5461 189.082L55.529 189.055Z" fill="#00A19A"/>
<path d="M135.337 240.224L138.543 230.035L141.752 219.841H128.918L132.127 230.035L135.337 240.224Z" fill="#00A19A"/>
<path d="M121.012 226.651C122.141 226.651 123.239 226.293 124.139 225.631L135.34 262.181L146.53 225.618C147.43 226.285 148.531 226.647 149.664 226.648C151.098 226.648 152.474 226.094 153.489 225.109C154.503 224.124 155.073 222.788 155.073 221.395C155.073 220.001 154.503 218.665 153.489 217.68C152.474 216.695 151.098 216.141 149.664 216.141C148.584 216.147 147.532 216.474 146.649 217.079C145.767 217.683 145.096 218.536 144.728 219.521H144.686L135.34 249.254L125.989 219.525H125.958C125.592 218.66 124.991 217.908 124.22 217.349C123.448 216.79 122.535 216.445 121.577 216.351C120.619 216.257 119.653 216.417 118.781 216.814C117.91 217.211 117.166 217.831 116.629 218.606C116.091 219.382 115.781 220.285 115.731 221.218C115.681 222.152 115.892 223.081 116.343 223.907C116.794 224.733 117.468 225.424 118.292 225.908C119.116 226.391 120.06 226.648 121.022 226.651H121.012Z" fill="#00A19A"/>
<path d="M214.694 208.035L209.545 198.618L204.396 189.208L195.321 198.021L205.018 203.021L214.708 208.021L214.694 208.035Z" fill="#00A19A"/>
<path d="M194.696 208.265C195.492 207.488 196.005 206.48 196.158 205.395L230.697 223.555L211.99 190.012C213.113 189.866 214.155 189.364 214.955 188.585C215.671 187.919 216.184 187.075 216.439 186.145C216.694 185.215 216.681 184.235 216.401 183.311C216.121 182.388 215.586 181.557 214.853 180.909C214.121 180.261 213.219 179.821 212.246 179.637C211.273 179.453 210.267 179.532 209.338 179.865C208.408 180.198 207.59 180.773 206.974 181.527C206.358 182.281 205.967 183.184 205.843 184.139C205.72 185.094 205.869 186.063 206.274 186.942L206.25 186.965L221.285 214.408L193.024 199.818V199.838C192.136 199.478 191.164 199.359 190.211 199.493C189.259 199.627 188.361 200.01 187.615 200.601C186.869 201.192 186.302 201.968 185.975 202.847C185.648 203.726 185.572 204.675 185.757 205.592C185.941 206.51 186.379 207.361 187.023 208.056C187.667 208.751 188.493 209.263 189.413 209.538C190.333 209.813 191.313 209.84 192.248 209.616C193.182 209.392 194.037 208.926 194.72 208.268L194.696 208.265Z" fill="#00A19A"/>
<path d="M247.379 130.765L236.886 127.649L226.389 124.532V136.995L236.886 133.882L247.379 130.765Z" fill="#00A19A"/>
<path d="M233.412 144.669C233.409 143.572 233.038 142.506 232.355 141.632L270 130.762L232.348 119.889C233.034 119.013 233.406 117.943 233.409 116.842C233.409 115.449 232.839 114.113 231.824 113.128C230.81 112.142 229.434 111.589 227.999 111.589C226.564 111.589 225.188 112.142 224.173 113.128C223.159 114.113 222.589 115.449 222.589 116.842C222.595 117.892 222.933 118.915 223.556 119.773C224.179 120.631 225.057 121.283 226.073 121.642V121.675L256.685 130.762L226.066 139.839V139.862C225.051 140.222 224.173 140.874 223.55 141.732C222.927 142.59 222.59 143.612 222.582 144.662C222.582 146.055 223.152 147.391 224.167 148.377C225.181 149.362 226.557 149.915 227.992 149.915C229.427 149.915 230.803 149.362 231.817 148.377C232.832 147.391 233.402 146.055 233.402 144.662L233.412 144.669Z" fill="#00A19A"/>
<path d="M214.231 53.6929L204.534 58.6929L194.844 63.6928L203.92 72.5061L209.068 63.0961L214.217 53.6862L214.231 53.6929Z" fill="#00A19A"/>
<path d="M214.468 73.1194C213.668 72.3464 212.63 71.8479 211.512 71.6994L230.22 38.1664L195.678 56.3262C195.524 55.2366 195.008 54.2255 194.209 53.4462C193.194 52.4614 191.817 51.9085 190.382 51.9091C188.948 51.9097 187.572 52.4638 186.558 53.4495C185.543 54.4353 184.974 55.7718 184.975 57.1652C184.975 58.5586 185.546 59.8946 186.561 60.8795C187.329 61.6162 188.312 62.1069 189.376 62.2856C190.44 62.4644 191.534 62.3227 192.513 61.8795L192.537 61.9028L220.801 47.3096L205.773 74.7527V74.7727C205.315 75.7238 205.168 76.7884 205.352 77.823C205.537 78.8576 206.043 79.8126 206.803 80.5593C207.305 81.0469 207.902 81.4337 208.559 81.6974C209.215 81.9611 209.919 82.0967 210.629 82.0964C211.34 82.0961 212.043 81.9599 212.699 81.6956C213.356 81.4313 213.952 81.044 214.454 80.556C214.956 80.0679 215.355 79.4885 215.626 78.851C215.898 78.2135 216.037 77.5302 216.037 76.8403C216.037 76.1504 215.896 75.4673 215.624 74.83C215.352 74.1927 214.953 73.6137 214.451 73.126L214.468 73.1194Z" fill="#00A19A"/>
<path d="M177.492 55.3294L175.775 54.6394L179.448 45.9728C180.233 44.1159 180.226 42.0323 179.429 40.1804C178.631 38.3285 177.109 36.86 175.197 36.0979C173.285 35.3359 171.139 35.3427 169.232 36.1169C167.325 36.8911 165.813 38.3693 165.028 40.2262L161.355 48.8928L159.639 48.2062L163.312 39.5396C164.286 37.2411 166.161 35.4126 168.524 34.4565C170.887 33.5004 173.544 33.4949 175.911 34.4413C178.278 35.3877 180.161 37.2084 181.145 39.5028C182.13 41.7973 182.136 44.3777 181.161 46.6762L177.492 55.3294Z" fill="#00A19A"/>
<path d="M173.328 40.5463C172.609 40.2569 171.837 40.1084 171.058 40.1093C170.279 40.1102 169.507 40.2606 168.788 40.5517C168.069 40.8428 167.416 41.269 166.867 41.8057C166.318 42.3425 165.883 42.9793 165.588 43.6796L163.089 49.5628L174.039 53.9528L176.538 48.0629C176.835 47.3636 176.986 46.6144 176.985 45.8582C176.983 45.1019 176.828 44.3534 176.528 43.6554C176.229 42.9573 175.79 42.3235 175.238 41.79C174.686 41.2565 174.032 40.8339 173.311 40.5463H173.328ZM170.308 47.6729C169.997 47.5489 169.73 47.338 169.543 47.0669C169.355 46.7958 169.254 46.4767 169.254 46.15C169.253 45.8234 169.352 45.5039 169.538 45.232C169.725 44.9601 169.99 44.748 170.301 44.6227C170.611 44.4973 170.953 44.4644 171.283 44.5279C171.613 44.5915 171.916 44.7487 172.154 44.9797C172.392 45.2107 172.554 45.505 172.619 45.8254C172.685 46.1458 172.651 46.4779 172.522 46.7795C172.438 46.9799 172.315 47.162 172.158 47.3154C172.001 47.4688 171.814 47.5903 171.609 47.6729C171.403 47.756 171.182 47.7988 170.958 47.7988C170.735 47.7988 170.514 47.756 170.308 47.6729Z" fill="#00A19A"/>
<path d="M220.196 106.696L219.479 105.029L228.373 101.429C230.243 100.635 231.718 99.1602 232.479 97.321C233.24 95.4819 233.227 93.426 232.443 91.5961C231.658 89.7662 230.165 88.3086 228.285 87.5374C226.405 86.7661 224.288 86.7428 222.39 87.4725L213.486 91.0658L212.775 89.3991L221.672 85.7992C224.026 84.8864 226.655 84.9094 228.991 85.8633C231.327 86.8172 233.183 88.6253 234.158 90.897C235.133 93.1688 235.148 95.7217 234.2 98.0043C233.253 100.287 231.418 102.116 229.094 103.096L220.196 106.696Z" fill="#00A19A"/>
<path d="M228.02 93.3858C227.415 91.9759 226.258 90.857 224.804 90.275C223.35 89.6931 221.718 89.6957 220.266 90.2825L214.18 92.7424L218.752 103.382L224.807 100.932C225.531 100.645 226.189 100.221 226.744 99.6855C227.298 99.1498 227.738 98.5129 228.038 97.8114C228.338 97.1099 228.492 96.3577 228.491 95.5981C228.49 94.8386 228.335 94.0867 228.033 93.3858H228.02ZM220.691 96.3857C220.547 96.036 220.531 95.6483 220.648 95.2888C220.764 94.9293 221.005 94.6201 221.33 94.4139C221.655 94.2076 222.044 94.1171 222.43 94.1577C222.815 94.1983 223.175 94.3675 223.447 94.6366C223.719 94.9056 223.886 95.2578 223.921 95.6332C223.955 96.0086 223.855 96.384 223.636 96.6956C223.418 97.0072 223.095 97.2356 222.723 97.3419C222.35 97.4483 221.951 97.4261 221.594 97.2791C221.184 97.1083 220.859 96.7873 220.691 96.3857Z" fill="#00A19A"/>
<path d="M212.806 172.768L213.517 171.102L222.441 174.668C224.336 175.367 226.437 175.32 228.296 174.538C230.156 173.756 231.629 172.301 232.401 170.481C233.174 168.662 233.185 166.622 232.433 164.794C231.68 162.967 230.224 161.496 228.373 160.695L219.448 157.128L220.159 155.462L229.083 159.028C230.255 159.497 231.321 160.185 232.219 161.054C233.117 161.922 233.83 162.954 234.318 164.09C234.805 165.226 235.058 166.444 235.06 167.675C235.063 168.906 234.816 170.125 234.334 171.263C233.851 172.401 233.142 173.436 232.248 174.308C231.354 175.18 230.291 175.873 229.121 176.346C227.951 176.82 226.697 177.065 225.429 177.067C224.162 177.07 222.906 176.83 221.734 176.362L212.806 172.768Z" fill="#00A19A"/>
<path d="M228.026 168.725C228.323 168.026 228.475 167.277 228.473 166.52C228.472 165.764 228.317 165.016 228.017 164.318C227.717 163.62 227.279 162.986 226.727 162.452C226.175 161.919 225.52 161.496 224.8 161.209L218.734 158.782L214.214 169.448L220.279 171.872C220.999 172.161 221.771 172.309 222.551 172.308C223.33 172.307 224.101 172.156 224.821 171.865C225.54 171.574 226.193 171.148 226.743 170.612C227.292 170.075 227.727 169.439 228.023 168.738L228.026 168.725ZM220.681 165.792C220.777 165.567 220.923 165.365 221.109 165.201C221.296 165.038 221.517 164.916 221.757 164.846C221.997 164.775 222.25 164.757 222.499 164.792C222.747 164.828 222.984 164.917 223.193 165.052C223.402 165.187 223.577 165.366 223.706 165.575C223.836 165.784 223.916 166.018 223.941 166.26C223.966 166.503 223.935 166.748 223.851 166.977C223.767 167.207 223.631 167.416 223.454 167.588C223.255 167.778 223.011 167.917 222.744 167.994C222.477 168.072 222.195 168.085 221.921 168.032C221.648 167.979 221.392 167.863 221.175 167.693C220.958 167.523 220.787 167.304 220.677 167.055C220.591 166.855 220.546 166.64 220.546 166.423C220.546 166.207 220.591 165.992 220.677 165.792H220.681Z" fill="#00A19A"/>
<path d="M160.504 213.701L162.22 213.005L165.924 221.645C166.317 222.561 166.893 223.393 167.617 224.094C168.342 224.794 169.201 225.349 170.146 225.727C171.092 226.105 172.105 226.298 173.127 226.296C174.149 226.294 175.161 226.096 176.105 225.715C177.049 225.333 177.906 224.774 178.627 224.07C179.348 223.367 179.92 222.532 180.309 221.614C180.698 220.696 180.897 219.713 180.895 218.72C180.893 217.727 180.689 216.744 180.296 215.828L176.592 207.191L178.309 206.491L182.016 215.131C182.503 216.267 182.755 217.486 182.758 218.716C182.76 219.947 182.513 221.166 182.03 222.304C181.547 223.442 180.839 224.477 179.944 225.349C179.05 226.221 177.987 226.913 176.817 227.386C175.647 227.859 174.393 228.104 173.125 228.107C171.858 228.109 170.602 227.869 169.431 227.4C168.259 226.931 167.193 226.243 166.296 225.374C165.398 224.506 164.685 223.474 164.197 222.338L160.504 213.701Z" fill="#00A19A"/>
<path d="M174.21 221.295C175.661 220.706 176.812 219.583 177.411 218.171C178.01 216.759 178.008 215.175 177.406 213.765L174.887 207.885L163.947 212.315L166.466 218.178C167.069 219.587 168.223 220.707 169.675 221.291C171.127 221.875 172.758 221.876 174.21 221.295ZM171.159 214.171C171.525 214.02 171.934 213.997 172.315 214.106C172.697 214.216 173.028 214.45 173.251 214.77C173.474 215.09 173.576 215.475 173.539 215.86C173.502 216.245 173.329 216.605 173.048 216.879C172.768 217.153 172.398 217.325 172.002 217.363C171.607 217.402 171.209 217.306 170.878 217.092C170.547 216.877 170.303 216.558 170.188 216.188C170.072 215.818 170.093 215.421 170.246 215.065C170.421 214.66 170.752 214.34 171.169 214.171H171.159Z" fill="#00A19A"/>
<path d="M92.4186 206.651L94.1349 207.341L90.4621 216.008C89.6755 217.862 89.6797 219.944 90.4737 221.795C91.2678 223.647 92.7866 225.116 94.6962 225.879C96.6057 226.643 98.7494 226.639 100.656 225.868C102.562 225.097 104.075 223.622 104.862 221.768L108.528 213.101L110.244 213.791L106.571 222.458C106.089 223.596 105.38 224.631 104.486 225.503C103.591 226.375 102.529 227.067 101.359 227.541C100.189 228.014 98.9344 228.259 97.6669 228.262C96.3995 228.265 95.1439 228.025 93.9719 227.556C92.7999 227.088 91.7344 226.399 90.8362 225.531C89.9381 224.662 89.2249 223.631 88.7374 222.495C88.2499 221.358 87.9976 220.14 87.9949 218.909C87.9922 217.679 88.2392 216.459 88.7217 215.321L92.4186 206.651Z" fill="#00A19A"/>
<path d="M96.5824 221.431C98.0369 222.011 99.6689 222.007 101.12 221.42C102.571 220.832 103.723 219.709 104.323 218.298L106.822 212.408L95.8376 208.025L93.3386 213.908C92.7406 215.321 92.7449 216.907 93.3506 218.317C93.9563 219.727 95.1138 220.846 96.5687 221.428L96.5824 221.431ZM99.6031 214.298C99.9653 214.444 100.264 214.708 100.449 215.044C100.633 215.38 100.692 215.767 100.616 216.141C100.539 216.514 100.331 216.85 100.028 217.092C99.7248 217.333 99.3448 217.465 98.9526 217.465C98.5605 217.465 98.1804 217.333 97.8772 217.092C97.574 216.85 97.3664 216.514 97.2897 216.141C97.213 215.767 97.272 215.38 97.4566 215.044C97.6412 214.708 97.94 214.444 98.3022 214.298C98.7191 214.129 99.1878 214.127 99.6065 214.291L99.6031 214.298Z" fill="#00A19A"/>
<path d="M49.5973 155.425L50.3181 157.092L41.4209 160.688C39.5532 161.485 38.0817 162.96 37.3224 164.798C36.5631 166.637 36.5767 168.691 37.3603 170.52C38.1438 172.348 39.6348 173.805 41.5128 174.578C43.3908 175.351 45.506 175.377 47.4038 174.652L56.308 171.052L57.0185 172.718L48.1144 176.325C46.9392 176.83 45.6719 177.102 44.387 177.125C43.1021 177.148 41.8254 176.921 40.6318 176.459C39.4383 175.996 38.352 175.306 37.4366 174.43C36.5213 173.554 35.7954 172.51 35.3015 171.357C34.8076 170.205 34.5557 168.969 34.5606 167.721C34.5655 166.473 34.8271 165.239 35.3299 164.09C35.8328 162.942 36.5669 161.902 37.489 161.033C38.4112 160.164 39.5029 159.482 40.7 159.028L49.5973 155.425Z" fill="#00A19A"/>
<path d="M41.7782 168.739C42.0773 169.437 42.5151 170.071 43.0668 170.605C43.6184 171.139 44.273 171.562 44.9931 171.851C45.7132 172.139 46.4848 172.286 47.2637 172.285C48.0425 172.283 48.8135 172.133 49.5324 171.842L55.5875 169.395L51.0256 158.762L44.974 161.212C44.2552 161.502 43.6024 161.927 43.0528 162.463C42.5032 162.998 42.0676 163.634 41.7708 164.332C41.4741 165.031 41.322 165.78 41.3233 166.536C41.3245 167.292 41.4791 168.041 41.7782 168.739ZM49.1137 165.779C49.264 166.131 49.2838 166.524 49.1697 166.889C49.0555 167.254 48.8145 167.57 48.4876 167.782C48.1608 167.994 47.7683 168.089 47.3771 168.052C46.986 168.014 46.6202 167.846 46.3423 167.576C46.0643 167.307 45.8914 166.951 45.8528 166.572C45.8143 166.192 45.9126 165.811 46.1309 165.493C46.3493 165.176 46.6742 164.942 47.0503 164.831C47.4265 164.72 47.8305 164.739 48.1937 164.885C48.4002 164.968 48.5877 165.089 48.7456 165.243C48.9035 165.396 49.0286 165.578 49.1137 165.779Z" fill="#00A19A"/>
<path d="M56.9158 89.4692L56.1881 91.1359L47.2634 87.5692C45.3539 86.8054 43.2101 86.8095 41.3037 87.5806C39.3973 88.3517 37.8844 89.8266 37.0978 91.6809C36.3112 93.5352 36.3154 95.6169 37.1095 97.4682C37.9035 99.3195 39.4224 100.789 41.3319 101.552L50.2566 105.112L49.5495 106.779L40.6248 103.212C39.4528 102.743 38.3874 102.055 37.4894 101.186C36.5915 100.317 35.8785 99.2849 35.3913 98.1485C34.4074 95.8534 34.4026 93.2727 35.3781 90.9742C36.3535 88.6757 38.2293 86.8476 40.5928 85.8921C42.9563 84.9366 45.6138 84.932 47.9808 85.8793L56.9158 89.4692Z" fill="#00A19A"/>
<path d="M41.6955 93.5124C41.398 94.2115 41.2454 94.9608 41.2466 95.7173C41.2478 96.4738 41.4027 97.2227 41.7024 97.9209C42.0022 98.6192 42.4409 99.2532 42.9934 99.7865C43.5459 100.32 44.2013 100.742 44.9221 101.029L50.9807 103.456L55.5014 92.789L49.436 90.3624C48.7158 90.074 47.944 89.9264 47.1649 89.928C46.3859 89.9296 45.6148 90.0803 44.8958 90.3717C44.1768 90.663 43.5241 91.0892 42.9749 91.6259C42.4258 92.1625 41.991 92.799 41.6955 93.499V93.5124ZM49.0344 96.4457C48.9381 96.6708 48.7917 96.8724 48.6057 97.036C48.4196 97.1997 48.1985 97.3212 47.9583 97.392C47.7181 97.4627 47.4647 97.4809 47.2164 97.4452C46.9681 97.4095 46.731 97.3209 46.5222 97.1856C46.3134 97.0504 46.138 96.8718 46.0087 96.6629C45.8794 96.454 45.7994 96.2198 45.7744 95.9773C45.7494 95.7347 45.7801 95.4898 45.8642 95.2602C45.9483 95.0305 46.0838 94.8218 46.2609 94.649C46.4583 94.4566 46.7015 94.3145 46.9691 94.2353C47.2366 94.1561 47.5202 94.1423 47.7946 94.195C48.0689 94.2478 48.3257 94.3655 48.5419 94.5377C48.7582 94.71 48.9274 94.9314 49.0344 95.1824C49.12 95.3826 49.1641 95.5972 49.1641 95.814C49.1641 96.0308 49.12 96.2455 49.0344 96.4457Z" fill="#00A19A"/>
<path d="M109.904 48.2228L108.188 48.9195L104.481 40.2695C104.102 39.3339 103.534 38.4811 102.811 37.761C102.089 37.0409 101.225 36.468 100.272 36.0757C99.3186 35.6835 98.2942 35.4797 97.2587 35.4765C96.2233 35.4733 95.1976 35.6705 94.2416 36.0568C93.2856 36.4431 92.4185 37.0106 91.691 37.7262C90.9636 38.4417 90.3903 39.291 90.0049 40.2242C89.6194 41.1574 89.4294 42.1559 89.4461 43.1613C89.4627 44.1667 89.6857 45.1588 90.1018 46.0795L93.8159 54.7194L92.0996 55.4094L88.3958 46.7695C87.8865 45.6301 87.6155 44.4037 87.5986 43.1617C87.5818 41.9196 87.8194 40.6867 88.2977 39.5347C88.776 38.3827 89.4854 37.3345 90.3846 36.4511C91.2838 35.5677 92.355 34.8667 93.5357 34.389C94.7165 33.9113 95.9833 33.6663 97.2624 33.6683C98.5415 33.6703 99.8075 33.9193 100.987 34.4007C102.166 34.8822 103.235 35.5865 104.131 36.4727C105.027 37.3589 105.733 38.4093 106.208 39.5629L109.904 48.2228Z" fill="#00A19A"/>
<path d="M96.1982 40.6262C95.479 40.9166 94.8258 41.3418 94.2759 41.8775C93.7261 42.4132 93.2903 43.0488 92.9935 43.7481C92.6967 44.4474 92.5447 45.1967 92.5463 45.953C92.5478 46.7094 92.7028 47.458 93.0025 48.1562L95.522 54.0361L106.472 49.6061L103.952 43.7262C103.653 43.0278 103.215 42.3935 102.664 41.8595C102.112 41.3256 101.458 40.9024 100.738 40.6142C100.017 40.326 99.2459 40.1784 98.467 40.1799C97.6881 40.1814 96.9171 40.3319 96.1982 40.6229V40.6262ZM99.2463 47.7495C98.9331 47.88 98.587 47.9169 98.2521 47.8557C97.9171 47.7944 97.6086 47.6377 97.3657 47.4055C97.1228 47.1734 96.9566 46.8762 96.8883 46.552C96.82 46.2277 96.8526 45.8911 96.982 45.5849C97.1114 45.2788 97.3318 45.0169 97.615 44.8328C97.8982 44.6487 98.2315 44.5507 98.5723 44.5512C98.9131 44.5517 99.2461 44.6507 99.5287 44.8356C99.8114 45.0205 100.031 45.283 100.159 45.5895C100.246 45.7895 100.29 46.0041 100.291 46.221C100.292 46.4378 100.249 46.6527 100.164 46.8533C100.079 47.0539 99.9545 47.2363 99.797 47.3901C99.6396 47.5439 99.4524 47.666 99.2463 47.7495Z" fill="#00A19A"/>
<path d="M156.409 189.302C149.665 191.445 142.649 192.679 135.56 192.968C128.221 193.276 120.874 192.603 113.725 190.968C106.572 189.375 99.8435 186.342 93.9738 182.065C87.848 177.477 82.9179 171.556 79.581 164.779C75.5671 156.319 73.5656 147.091 73.725 137.779C73.4334 129.552 74.8012 121.349 77.7514 113.632C82.8852 100.22 93.2229 89.2939 106.551 83.1926C113.174 80.0999 120.252 78.023 127.531 77.036C135.056 76.0106 142.695 76.0488 150.21 77.1494C157.995 78.2752 165.586 80.4273 172.772 83.546C171.465 88.9193 170.207 94.2892 168.996 99.6558C167.786 105.022 166.606 110.467 165.457 115.989V116.226L160.339 116.462L145.459 116.699C144.159 116.699 143.509 115.91 143.509 114.332V101.786C143.515 101.468 143.608 101.157 143.78 100.886C143.951 100.615 144.194 100.394 144.484 100.246C145.191 99.8554 145.99 99.6501 146.803 99.6501C147.616 99.6501 148.415 99.8554 149.122 100.246C149.411 100.395 149.654 100.616 149.825 100.887C149.996 101.158 150.09 101.468 150.097 101.786V110.312H158.39L153.989 88.7559C151.043 87.6879 147.973 86.9726 144.848 86.6259C141 86.1523 137.105 86.1523 133.256 86.6259C129.043 87.1441 124.933 88.2675 121.06 89.9593C116.87 91.779 113.126 94.4422 110.076 97.7725C106.533 101.735 103.803 106.318 102.03 111.276C99.7478 117.83 98.6718 124.723 98.8515 131.639C98.4163 139.715 99.7476 147.789 102.758 155.329C105.082 160.91 108.809 165.838 113.598 169.662C118.006 173.035 123.125 175.425 128.591 176.662C134.03 177.911 139.593 178.581 145.181 178.662C150.357 178.76 155.533 178.483 160.665 177.832C165.471 177.203 169.414 176.647 172.494 176.165L173.232 181.375C168.068 184.826 162.396 187.498 156.409 189.302Z" fill="#00A19A"/>
<path d="M72.0878 301.797C68.288 287.547 59.8713 277.631 50.1193 277.631C36.8078 277.631 25.9951 296.08 25.9951 318.814C25.9848 341.54 36.7975 359.997 50.109 359.997C60.8564 359.997 69.9734 347.977 73.0867 331.39H60.7294C58.6458 341.147 54.3345 347.86 49.3573 347.86C42.3548 347.86 36.6567 334.557 36.6567 318.167C36.6567 301.784 42.3514 288.481 49.3573 288.481C53.7819 288.481 57.6778 293.774 59.9536 301.814L72.0878 301.797Z" fill="#A5115B"/>
<path fill-rule="evenodd" clip-rule="evenodd" d="M95.2577 335.337H73.0867C73.0867 348.437 82.9039 359.077 94.9934 359.077C107.083 359.077 116.9 348.437 116.9 335.337H104.2V338.047H85.7838V335.38L95.2577 335.337ZM73.0867 286.014H85.7872V335.347H73.0867V286.014ZM104.2 290.454H116.9V335.337H104.2V290.454ZM104.2 338.05C104.287 340.51 103.367 342.903 101.64 344.706C99.9142 346.508 97.5229 347.573 94.99 347.667C92.4574 347.571 90.0669 346.505 88.3416 344.703C86.6162 342.9 85.6966 340.507 85.7838 338.047H104.2V338.05Z" fill="#A5115B"/>
<path fill-rule="evenodd" clip-rule="evenodd" d="M122.993 357.533H133.15C135.292 352.95 134.314 341.923 138.23 342.737H148.391C153.121 342.683 151.549 348.77 153.471 360H163.628C169.762 341.163 156.643 294.187 143.311 293.417C135.066 294.554 117.264 337.857 122.993 357.533ZM143.311 313.144C140.705 314.894 139.116 319.927 138.23 327.94C138.879 328.618 139.665 329.159 140.539 329.529C141.413 329.898 142.356 330.089 143.309 330.089C144.262 330.089 145.205 329.898 146.079 329.529C146.953 329.159 147.738 328.618 148.387 327.94C147.811 320.284 146.17 315.4 143.311 313.144Z" fill="#A5115B"/>
<path d="M176.075 281.084H128.073V290.451H176.075V358.273H185.72V290.451H209.336V281.084H176.075Z" fill="#A5115B"/>
<path d="M214.416 348.9V281.084H224.065V348.9H244.891V358.27H214.416V348.9Z" fill="#A5115B"/>
</svg>
